<?xml version="1.0" encoding="iso-8859-1"?>
<!-- Generator: Adobe Illustrator 19.0.0, SVG Export Plug-In . SVG Version: 6.00 Build 0)  -->
<svg version="1.1" id="Layer_1" xmlns="http://www.w3.org/2000/svg" xmlns:xlink="http://www.w3.org/1999/xlink" x="0px" y="0px"
	 viewBox="0 0 463 463" style="enable-background:new 0 0 463 463;" xml:space="preserve">
<g>
	<g>
		<g>
			<path d="M455.5,200H333.356l-4.25-17H367.5c12.958,0,23.5-10.542,23.5-23.5v-80c0-12.958-10.542-23.5-23.5-23.5h-128
				C226.542,56,216,66.542,216,79.5v80c0,12.958,10.542,23.5,23.5,23.5h38.394l-4.25,17H199v-32.5c0-4.142-3.358-7.5-7.5-7.5h-32
				c-4.142,0-7.5,3.358-7.5,7.5V200h-25v-24.5c0-4.142-3.358-7.5-7.5-7.5H111v-17h8.5c4.142,0,7.5-3.358,7.5-7.5v-32
				c0-4.142-3.358-7.5-7.5-7.5h-80c-4.142,0-7.5,3.358-7.5,7.5V136h-8.5c-4.142,0-7.5,3.358-7.5,7.5v32V200H7.5
				c-4.142,0-7.5,3.358-7.5,7.5v32c0,4.142,3.358,7.5,7.5,7.5H16v152.5c0,4.142,3.358,7.5,7.5,7.5s7.5-3.358,7.5-7.5V247h401v152.5
				c0,4.142,3.358,7.5,7.5,7.5c4.142,0,7.5-3.358,7.5-7.5V247h8.5c4.142,0,7.5-3.358,7.5-7.5v-32C463,203.358,459.642,200,455.5,200
				z M231,79.5c0-4.687,3.813-8.5,8.5-8.5h128c4.687,0,8.5,3.813,8.5,8.5V136H231V79.5z M239.5,168c-4.687,0-8.5-3.813-8.5-8.5V151
				h145v8.5c0,4.687-3.813,8.5-8.5,8.5H239.5z M317.895,200h-28.789l4.25-17h20.289L317.895,200z M167,175h17v25h-17V175z M47,119
				h65v17h-8.5H47V119z M31,151h8.5H96v17H31V151z M31,183h72.5h8.5v17H31V183z M448,232H15v-17h433V232z"/>
			<path d="M151.5,264h-96c-4.142,0-7.5,3.358-7.5,7.5v112c0,4.142,3.358,7.5,7.5,7.5H56v8.5c0,4.142,3.358,7.5,7.5,7.5
				c4.142,0,7.5-3.358,7.5-7.5V391h65v8.5c0,4.142,3.358,7.5,7.5,7.5c4.142,0,7.5-3.358,7.5-7.5V391h0.5c4.142,0,7.5-3.358,7.5-7.5
				v-112C159,267.358,155.642,264,151.5,264z M144,376H63v-41h81V376z M144,320H63v-41h81V320z"/>
			<path d="M95.5,303h16c4.142,0,7.5-3.358,7.5-7.5c0-4.142-3.358-7.5-7.5-7.5h-16c-4.142,0-7.5,3.358-7.5,7.5
				C88,299.642,91.358,303,95.5,303z"/>
			<path d="M95.5,359h16c4.142,0,7.5-3.358,7.5-7.5c0-4.142-3.358-7.5-7.5-7.5h-16c-4.142,0-7.5,3.358-7.5,7.5
				C88,355.642,91.358,359,95.5,359z"/>
			<path d="M415.5,312h-7.991c-0.02,0-0.04,0-0.06,0h-63.917c-0.007,0-0.014,0-0.022,0h-8.01c-4.142,0-7.5,3.358-7.5,7.5
				c0,4.142,3.358,7.5,7.5,7.5h1.213l6.604,66.042C344.112,401,350.743,407,358.74,407h33.521c7.997,0,14.627-6.001,15.423-13.958
				L414.287,327h1.213c4.142,0,7.5-3.358,7.5-7.5C423,315.358,419.642,312,415.5,312z M392.757,391.55
				c-0.025,0.256-0.239,0.45-0.497,0.45h-33.52c-0.258,0-0.472-0.193-0.497-0.45L351.788,327h47.425L392.757,391.55z"/>
		</g>
	</g>
</g>
<g>
</g>
<g>
</g>
<g>
</g>
<g>
</g>
<g>
</g>
<g>
</g>
<g>
</g>
<g>
</g>
<g>
</g>
<g>
</g>
<g>
</g>
<g>
</g>
<g>
</g>
<g>
</g>
<g>
</g>
</svg>
