<?xml version="1.0" encoding="iso-8859-1"?>
<!-- Generator: Adobe Illustrator 17.1.0, SVG Export Plug-In . SVG Version: 6.00 Build 0)  -->
<!DOCTYPE svg PUBLIC "-//W3C//DTD SVG 1.1//EN" "http://www.w3.org/Graphics/SVG/1.1/DTD/svg11.dtd">
<svg version="1.1" id="Capa_1" xmlns="http://www.w3.org/2000/svg" xmlns:xlink="http://www.w3.org/1999/xlink" x="0px" y="0px"
	 viewBox="0 0 476.8 476.8" style="enable-background:new 0 0 476.8 476.8;" xml:space="preserve">
<path d="M456,215.833c-6.765,0-12.767,3.261-16.568,8.277l-81.182-57.987c-0.289-0.206-0.589-0.382-0.893-0.545
	c-0.068-0.036-0.138-0.07-0.208-0.105c-0.358-0.178-0.723-0.334-1.096-0.455c-1.917-0.624-41.533-13.186-117.653-13.186
	c-75.376,0-115.938,12.639-117.627,13.177c-0.003,0.001-0.006,0.003-0.01,0.004c-0.365,0.117-0.723,0.267-1.074,0.44
	c-0.071,0.035-0.14,0.07-0.21,0.106c-0.317,0.167-0.629,0.349-0.929,0.563l-0.042,0.03c-0.004,0.003-0.008,0.005-0.012,0.008
	l-81.128,57.949c-3.801-5.016-9.804-8.277-16.568-8.277c-11.469,0-20.8,9.331-20.8,20.8s9.331,20.8,20.8,20.8
	c6.765,0,12.767-3.261,16.568-8.277l81.182,57.987c0.07,0.05,0.147,0.084,0.219,0.131c0.187,0.125,0.381,0.239,0.58,0.349
	c0.172,0.095,0.344,0.187,0.52,0.269c0.068,0.031,0.13,0.073,0.199,0.103c1.629,0.693,40.792,16.972,118.332,16.972
	s116.702-16.278,118.332-16.972c0.069-0.03,0.131-0.071,0.199-0.103c0.177-0.081,0.349-0.174,0.521-0.269
	c0.199-0.109,0.392-0.224,0.579-0.348c0.072-0.048,0.148-0.081,0.219-0.132l81.182-57.987c3.801,5.016,9.804,8.277,16.568,8.277
	c11.469,0,20.8-9.331,20.8-20.8S467.469,215.833,456,215.833z M361.6,223.369l50.253,13.265L361.6,249.898V223.369z M361.6,206.82
	v-18.642l41.395,29.568L361.6,206.82z M361.6,266.446l41.395-10.927L361.6,285.088V266.446z M115.2,249.898l-50.253-13.265
	l50.253-13.265V249.898z M115.2,206.82l-41.395,10.927l41.395-29.568V206.82z M115.2,266.446v9.372v0.015v9.254L73.805,255.52
	L115.2,266.446z M20.8,241.433c-2.646,0-4.8-2.153-4.8-4.8s2.153-4.8,4.8-4.8c2.647,0,4.8,2.153,4.8,4.8
	S23.447,241.433,20.8,241.433z M238.4,308.966c-58.834,0-94.807-9.857-107.2-13.949v-8.568c16.429,3.912,52.03,10.414,107.2,10.414
	c18.907,0,37.146-0.777,54.212-2.312c4.4-0.396,7.647-4.283,7.251-8.684c-0.395-4.401-4.277-7.656-8.684-7.252
	c-16.591,1.491-34.348,2.247-52.779,2.247c-58.293,0-94.25-7.597-107.2-10.923v-91.198c13.258-3.313,49.903-10.908,107.2-10.908
	c57.747,0,94.082,7.576,107.2,10.888v91.229c-3.289,0.851-8.037,1.974-14.252,3.172c-4.338,0.837-7.176,5.032-6.339,9.371
	c0.738,3.826,4.089,6.486,7.846,6.486c0.502,0,1.013-0.048,1.524-0.146c4.409-0.851,8.149-1.67,11.221-2.399v8.583
	C333.194,299.113,297.226,308.966,238.4,308.966z M456,241.433c-2.647,0-4.8-2.153-4.8-4.8s2.153-4.8,4.8-4.8
	c2.646,0,4.8,2.153,4.8,4.8S458.646,241.433,456,241.433z"/>
<g>
</g>
<g>
</g>
<g>
</g>
<g>
</g>
<g>
</g>
<g>
</g>
<g>
</g>
<g>
</g>
<g>
</g>
<g>
</g>
<g>
</g>
<g>
</g>
<g>
</g>
<g>
</g>
<g>
</g>
</svg>
