<?xml version="1.0" encoding="iso-8859-1"?>
<!-- Generator: Adobe Illustrator 17.1.0, SVG Export Plug-In . SVG Version: 6.00 Build 0)  -->
<!DOCTYPE svg PUBLIC "-//W3C//DTD SVG 1.1//EN" "http://www.w3.org/Graphics/SVG/1.1/DTD/svg11.dtd">
<svg version="1.1" id="Capa_1" xmlns="http://www.w3.org/2000/svg" xmlns:xlink="http://www.w3.org/1999/xlink" x="0px" y="0px"
	 viewBox="0 0 473.003 473.003" style="enable-background:new 0 0 473.003 473.003;" xml:space="preserve">
<path d="M430.962,359.298l-110.267-80.282c-24.604-17.913-53.695-27.381-84.13-27.381c-30.407,0-59.479,9.454-84.07,27.338
	L42.051,359.296c-2.627,1.911-3.726,5.295-2.722,8.385c1.005,3.089,3.884,5.181,7.133,5.181h380.085c3.248,0,6.127-2.09,7.132-5.179
	S433.588,361.21,430.962,359.298z M69.526,357.861l91.791-66.757c22.012-16.008,48.032-24.469,75.248-24.469
	c27.241,0,53.279,8.475,75.302,24.508l91.638,66.719H69.526z M456.472,335.151L265.509,196.435
	c-6.438-4.676-13.764-7.676-21.504-8.854v-22.565c0-7.396-6.018-13.414-13.414-13.414c-9.745,0-17.674-7.928-17.674-17.674v-29.737
	c0-13.006,10.581-23.588,23.588-23.588h0.532c13.006,0,23.587,10.582,23.587,23.588v3.312c0,4.142,3.357,7.5,7.5,7.5
	s7.5-3.358,7.5-7.5v-3.312c0-21.277-17.31-38.588-38.587-38.588h-0.532c-21.277,0-38.588,17.311-38.588,38.588v29.737
	c0,17.485,13.805,31.807,31.088,32.636v21.015c-7.743,1.177-15.071,4.177-21.511,8.855L16.537,335.146
	C2.226,345.553-3.445,363.142,2.092,379.955c5.405,16.416,20.917,27.445,38.6,27.445h392.283c17.625,0,32.536-10.831,37.989-27.594
	C476.413,363.042,470.726,345.515,456.472,335.151z M456.699,375.167c-3.405,10.468-12.718,17.232-23.725,17.232H40.691
	c-11.19,0-20.977-6.887-24.352-17.136c-3.458-10.501,0.082-21.486,9.017-27.983L216.311,208.57
	c5.907-4.291,12.889-6.559,20.19-6.559s14.284,2.268,20.191,6.559l190.961,138.714C456.551,353.754,460.101,364.699,456.699,375.167
	z M199.957,232.076c0-4.142,3.357-7.5,7.5-7.5h30.835c4.143,0,7.5,3.358,7.5,7.5s-3.357,7.5-7.5,7.5h-30.835
	C203.314,239.576,199.957,236.218,199.957,232.076z M251.166,232.076c0-4.142,3.357-7.5,7.5-7.5h7.085c4.143,0,7.5,3.358,7.5,7.5
	s-3.357,7.5-7.5,7.5h-7.085C254.523,239.576,251.166,236.218,251.166,232.076z"/>
<g>
</g>
<g>
</g>
<g>
</g>
<g>
</g>
<g>
</g>
<g>
</g>
<g>
</g>
<g>
</g>
<g>
</g>
<g>
</g>
<g>
</g>
<g>
</g>
<g>
</g>
<g>
</g>
<g>
</g>
</svg>
