<?xml version="1.0" encoding="iso-8859-1"?>
<!-- Generator: Adobe Illustrator 19.0.0, SVG Export Plug-In . SVG Version: 6.00 Build 0)  -->
<svg version="1.1" id="Layer_1" xmlns="http://www.w3.org/2000/svg" xmlns:xlink="http://www.w3.org/1999/xlink" x="0px" y="0px"
	 viewBox="0 0 511.973 511.973" style="enable-background:new 0 0 511.973 511.973;" xml:space="preserve">
<g>
	<g>
		<g>
			<path d="M341.318,288.572V85.333C341.318,38.202,303.116,0,255.985,0c-47.116,0-85.333,38.208-85.333,85.333v203.26
				c-26.828,23.98-42.667,58.4-42.667,95.407c0,81.033,74.209,142.058,155.311,125.14c49.838-10.379,89.466-51.228,98.555-101.412
				C390.081,362.227,374.111,317.865,341.318,288.572z M339.867,400.128c-5.996,33.108-32.486,60.414-65.277,67.242
				c-54.496,11.368-103.939-29.29-103.939-83.371c0-27.206,12.799-52.257,34.138-68.27l8.529-6.4V85.333
				c0-23.559,19.112-42.667,42.667-42.667c23.567,0,42.667,19.099,42.667,42.667v226.518l10.046,5.023
				C333.427,336.311,345.752,367.591,339.867,400.128z"/>
			<path d="M277.327,347.045V191.994c0-11.782-9.551-21.333-21.333-21.333c-11.782,0-21.333,9.551-21.333,21.333v155.051
				c-12.752,7.376-21.333,21.151-21.333,36.949c0,23.573,19.093,42.667,42.667,42.667c23.573,0,42.667-19.093,42.667-42.667
				C298.66,368.196,290.078,354.42,277.327,347.045z"/>
		</g>
	</g>
</g>
<g>
</g>
<g>
</g>
<g>
</g>
<g>
</g>
<g>
</g>
<g>
</g>
<g>
</g>
<g>
</g>
<g>
</g>
<g>
</g>
<g>
</g>
<g>
</g>
<g>
</g>
<g>
</g>
<g>
</g>
</svg>
