<?xml version="1.0" encoding="iso-8859-1"?>
<!-- Generator: Adobe Illustrator 19.0.0, SVG Export Plug-In . SVG Version: 6.00 Build 0)  -->
<svg version="1.1" id="Layer_1" xmlns="http://www.w3.org/2000/svg" xmlns:xlink="http://www.w3.org/1999/xlink" x="0px" y="0px"
	 viewBox="0 0 512 512" style="enable-background:new 0 0 512 512;" xml:space="preserve">
<g>
	<path style="fill:#1D1D1B;" d="M311.918,136.003H32.013v215.879h279.905V136.003H311.918z M296.121,336.085H47.81V151.8h248.31
		v184.284H296.121z"/>
	<rect x="400.168" y="135.899" style="fill:#1D1D1B;" width="15.797" height="16.006"/>
	<rect x="400.168" y="167.915" style="fill:#1D1D1B;" width="15.797" height="16.007"/>
	<rect x="400.168" y="199.92" style="fill:#1D1D1B;" width="15.797" height="16.007"/>
	<rect x="432.068" y="136.004" style="fill:#1D1D1B;" width="56.028" height="15.797"/>
	<rect x="432.068" y="168.02" style="fill:#1D1D1B;" width="56.028" height="15.797"/>
	<rect x="432.068" y="200.025" style="fill:#1D1D1B;" width="56.028" height="15.797"/>
	<path style="fill:#1D1D1B;" d="M487.99,304.072h-87.828v47.81h87.828V304.072z M472.193,336.085H415.96v-16.215h56.233V336.085z"/>
	<path style="fill:#1D1D1B;" d="M0,95.987v295.911h24.01v24.114h15.797v-24.114h432.386v24.114h15.797v-24.114H512V95.987H0z
		 M376.153,376.1H15.797V111.785h360.356V376.1z M496.203,376.1H391.951V111.785h104.252V376.1z"/>
	<polygon style="fill:#1D1D1B;" points="360.042,336.085 351.935,336.085 351.935,151.8 360.042,151.8 360.042,136.003 
		328.03,136.003 328.03,151.8 336.138,151.8 336.138,336.085 328.03,336.085 328.03,351.882 360.042,351.882 	"/>
	<path style="fill:#1D1D1B;" d="M440.075,279.853c10.414,0,19.287-6.696,22.558-16.007h17.459v-15.797h-17.459
		c-3.269-9.311-12.144-16.006-22.558-16.006c-13.181,0-23.905,10.724-23.905,23.905C416.17,269.129,426.894,279.853,440.075,279.853
		z M440.075,247.84c4.471,0,8.107,3.637,8.107,8.107c0,4.471-3.637,8.108-8.107,8.108s-8.107-3.638-8.107-8.108
		S435.604,247.84,440.075,247.84z"/>
	
		<rect x="98.398" y="236.047" transform="matrix(0.7071 -0.7071 0.7071 0.7071 -122.1279 193.0476)" style="fill:#1D1D1B;" width="147.135" height="15.797"/>
	
		<rect x="190.863" y="250.057" transform="matrix(0.7071 -0.7071 0.7071 0.7071 -117.383 232.5228)" style="fill:#1D1D1B;" width="62.251" height="15.797"/>
	
		<rect x="104.048" y="217.308" transform="matrix(-0.7071 -0.7071 0.7071 -0.7071 21.4384 488.7684)" style="fill:#1D1D1B;" width="15.797" height="45.273"/>
</g>
<g>
</g>
<g>
</g>
<g>
</g>
<g>
</g>
<g>
</g>
<g>
</g>
<g>
</g>
<g>
</g>
<g>
</g>
<g>
</g>
<g>
</g>
<g>
</g>
<g>
</g>
<g>
</g>
<g>
</g>
</svg>
