<?xml version="1.0" encoding="iso-8859-1"?>
<!-- Generator: Adobe Illustrator 19.0.0, SVG Export Plug-In . SVG Version: 6.00 Build 0)  -->
<svg version="1.1" id="Layer_1" xmlns="http://www.w3.org/2000/svg" xmlns:xlink="http://www.w3.org/1999/xlink" x="0px" y="0px"
	 viewBox="0 0 512 512" style="enable-background:new 0 0 512 512;" xml:space="preserve">
<g>
	<g>
		<path d="M473.043,413.088V267.13h22.261c9.22,0,16.696-7.475,16.696-16.696c0-9.22-7.475-16.696-16.696-16.696h-55.652V50.087
			C439.652,22.469,417.183,0,389.565,0h-267.13C94.817,0,72.348,22.469,72.348,50.087v183.652H16.696
			C7.475,233.739,0,241.214,0,250.435c0,9.22,7.475,16.696,16.696,16.696h22.261v145.958C16.68,418.165,0,438.121,0,461.913v33.391
			C0,504.525,7.475,512,16.696,512h478.609c9.22,0,16.696-7.475,16.696-16.696v-33.391C512,438.121,495.32,418.165,473.043,413.088z
			 M439.652,267.13v144.696h-33.391V267.13C418.344,267.13,427.569,267.13,439.652,267.13z M105.739,50.087
			c0-9.206,7.49-16.696,16.696-16.696h267.13c9.206,0,16.696,7.49,16.696,16.696v183.652H372.87V83.478
			c0-9.22-7.475-16.696-16.696-16.696H155.826c-9.22,0-16.696,7.475-16.696,16.696v150.261h-33.391V50.087z M272.696,233.739
			V100.174h66.783v133.565H272.696z M306.087,267.13v144.696h-33.391V267.13H306.087z M339.478,267.13c12.083,0,21.308,0,33.391,0
			v144.696h-33.391V267.13z M172.522,233.739V100.174h66.783v133.565H172.522z M239.304,267.13v144.696h-33.391V267.13H239.304z
			 M172.522,267.13v144.696H139.13V267.13C151.214,267.13,160.439,267.13,172.522,267.13z M72.348,267.13
			c12.083,0,21.308,0,33.391,0v144.696H72.348V267.13z M478.609,478.609H33.391v-16.696c0-9.206,7.49-16.696,16.696-16.696h411.826
			c9.206,0,16.696,7.49,16.696,16.696V478.609z"/>
	</g>
</g>
<g>
</g>
<g>
</g>
<g>
</g>
<g>
</g>
<g>
</g>
<g>
</g>
<g>
</g>
<g>
</g>
<g>
</g>
<g>
</g>
<g>
</g>
<g>
</g>
<g>
</g>
<g>
</g>
<g>
</g>
</svg>
