<?xml version="1.0" encoding="iso-8859-1"?>
<!-- Generator: Adobe Illustrator 19.0.0, SVG Export Plug-In . SVG Version: 6.00 Build 0)  -->
<svg version="1.1" id="Layer_1" xmlns="http://www.w3.org/2000/svg" xmlns:xlink="http://www.w3.org/1999/xlink" x="0px" y="0px"
	 viewBox="0 0 512 512" style="enable-background:new 0 0 512 512;" xml:space="preserve">
<g transform="translate(1 1)">
	<g>
		<g>
			<path d="M84.333,186.733c5.12,0,8.533-3.413,8.533-8.533c0-65.707,53.76-119.467,119.467-119.467c5.12,0,8.533-3.413,8.533-8.533
				s-3.413-8.533-8.533-8.533C137.24,41.667,75.8,103.107,75.8,178.2C75.8,183.32,79.213,186.733,84.333,186.733z"/>
			<path d="M203.8,306.2c0,5.12,3.413,8.533,8.533,8.533c75.093,0,136.533-61.44,136.533-136.533c0-5.12-3.413-8.533-8.533-8.533
				s-8.533,3.413-8.533,8.533c0,65.707-53.76,119.467-119.467,119.467C207.213,297.667,203.8,301.08,203.8,306.2z"/>
			<path d="M161.133,178.2c0,28.16,23.04,51.2,51.2,51.2c28.16,0,51.2-23.04,51.2-51.2s-23.04-51.2-51.2-51.2
				C184.173,127,161.133,150.04,161.133,178.2z M246.467,178.2c0,18.773-15.36,34.133-34.133,34.133
				c-18.773,0-34.133-15.36-34.133-34.133s15.36-34.133,34.133-34.133C231.107,144.067,246.467,159.427,246.467,178.2z"/>
			<path d="M118.467,468.333H306.2V383H118.467V468.333z M135.533,400.067h153.6v51.2h-153.6V400.067z"/>
			<path d="M178.2,417.133h-17.067c-5.12,0-8.533,3.413-8.533,8.533s3.413,8.533,8.533,8.533H178.2c5.12,0,8.533-3.413,8.533-8.533
				S183.32,417.133,178.2,417.133z"/>
			<path d="M263.533,417.133h-17.067c-5.12,0-8.533,3.413-8.533,8.533s3.413,8.533,8.533,8.533h17.067
				c5.12,0,8.533-3.413,8.533-8.533S268.653,417.133,263.533,417.133z"/>
			<path d="M212.333,417.133c-5.12,0-8.533,3.413-8.533,8.533s3.413,8.533,8.533,8.533s8.533-3.413,8.533-8.533
				S217.453,417.133,212.333,417.133z"/>
			<path d="M476.867,178.2c0-18.773-15.36-34.133-34.133-34.133S408.6,159.427,408.6,178.2c0,15.829,10.921,29.232,25.6,33.046
				v99.221l-85.333,70.746v-86.946c26.605-31.268,42.667-71.785,42.667-116.067c0-98.987-80.213-179.2-179.2-179.2
				s-179.2,80.213-179.2,179.2c0,44.282,16.062,84.799,42.667,116.067v181.747C75.8,494.787,92.013,511,110.787,511H313.88
				c18.773,0,34.987-16.213,34.987-35.84v-71.102L451.267,319V211.246C465.946,207.432,476.867,194.029,476.867,178.2z
				 M212.333,16.067c89.6,0,162.133,72.533,162.133,162.133c0,36.154-11.815,69.526-31.791,96.478l-9.169,10.188
				c-30.72,34.987-75.093,55.467-121.173,55.467s-90.453-20.48-121.173-55.467l-9.169-10.188
				C62.015,247.726,50.2,214.354,50.2,178.2C50.2,88.6,122.733,16.067,212.333,16.067z M313.88,493.933H110.787
				c-9.387,0-17.92-8.533-17.92-18.773V311.767c12.959,11.599,27.616,21.335,43.554,28.798c0.303,0.143,0.607,0.285,0.911,0.425
				c0.812,0.375,1.627,0.744,2.446,1.107c0.59,0.262,1.181,0.52,1.774,0.776c0.607,0.261,1.214,0.52,1.824,0.775
				c0.792,0.331,1.587,0.654,2.384,0.974c0.465,0.186,0.929,0.373,1.396,0.555c0.936,0.366,1.876,0.721,2.818,1.071
				c0.364,0.135,0.728,0.273,1.094,0.406c1.044,0.38,2.092,0.747,3.143,1.107c0.29,0.099,0.579,0.202,0.87,0.3
				c1.141,0.384,2.287,0.754,3.436,1.115c0.216,0.068,0.431,0.14,0.648,0.207c1.298,0.402,2.601,0.79,3.909,1.163
				c0.075,0.021,0.148,0.044,0.223,0.066c2.781,0.788,5.584,1.51,8.406,2.164c0.452,0.105,0.907,0.199,1.36,0.3
				c0.924,0.206,1.848,0.412,2.775,0.604c0.629,0.13,1.262,0.249,1.893,0.372c0.757,0.148,1.514,0.297,2.273,0.435
				c0.7,0.128,1.404,0.245,2.107,0.365c0.7,0.119,1.4,0.238,2.102,0.348c0.729,0.115,1.461,0.222,2.192,0.328
				c0.687,0.099,1.374,0.197,2.062,0.289c0.737,0.098,1.476,0.191,2.217,0.28c0.696,0.084,1.393,0.163,2.09,0.239
				c0.73,0.079,1.46,0.156,2.192,0.226c0.727,0.07,1.456,0.133,2.185,0.194c0.704,0.059,1.408,0.118,2.114,0.169
				c0.79,0.057,1.581,0.104,2.373,0.15c0.649,0.038,1.297,0.08,1.948,0.111c0.921,0.044,1.844,0.075,2.766,0.105
				c0.53,0.017,1.058,0.042,1.589,0.054c1.462,0.035,2.926,0.056,4.393,0.056c1.426,0,2.849-0.019,4.271-0.054
				c44.228-1.034,84.48-18.088,115.196-45.579v85.159c-0.589,1.757-0.63,3.737,0,5.522v73.565
				C331.8,485.4,324.12,493.933,313.88,493.933z M442.733,195.267c-9.387,0-17.067-7.68-17.067-17.067s7.68-17.067,17.067-17.067
				s17.067,7.68,17.067,17.067S452.12,195.267,442.733,195.267z"/>
		</g>
	</g>
</g>
<g>
</g>
<g>
</g>
<g>
</g>
<g>
</g>
<g>
</g>
<g>
</g>
<g>
</g>
<g>
</g>
<g>
</g>
<g>
</g>
<g>
</g>
<g>
</g>
<g>
</g>
<g>
</g>
<g>
</g>
</svg>
