<?xml version="1.0" encoding="iso-8859-1"?>
<!-- Generator: Adobe Illustrator 19.0.0, SVG Export Plug-In . SVG Version: 6.00 Build 0)  -->
<svg version="1.1" id="Capa_1" xmlns="http://www.w3.org/2000/svg" xmlns:xlink="http://www.w3.org/1999/xlink" x="0px" y="0px"
	 viewBox="0 0 490 490" style="enable-background:new 0 0 490 490;" xml:space="preserve">
<path id="XMLID_1581_" d="M210,195c0-8.284,6.716-15,15-15h40c8.284,0,15,6.716,15,15s-6.716,15-15,15h-40
	C216.716,210,210,203.284,210,195z M490,125v270c0,35.841-29.159,65-65,65h-26.266c-4.451,17.233-20.13,30-38.734,30h-10
	c-18.604,0-34.283-12.767-38.734-30H178.734c-4.451,17.233-20.13,30-38.734,30h-10c-18.604,0-34.283-12.767-38.734-30H65
	c-35.841,0-65-29.159-65-65V125c0-35.841,29.159-65,65-65h25.19C92.752,26.486,120.841,0,155,0h180c34.159,0,62.248,26.486,64.81,60
	H425C460.841,60,490,89.159,490,125z M120.356,60H355h14.644C367.21,43.061,352.602,30,335,30H155
	C137.398,30,122.79,43.061,120.356,60z M190,135V90h-40v115c0,24.813,20.187,45,45,45h100c24.813,0,45-20.187,45-45V90h-40v45
	c0,8.284-6.716,15-15,15h-80C196.716,150,190,143.284,190,135z M270,120V90h-50v30H270z M459.644,400H30.356
	C32.79,416.939,47.398,430,65,430h40c8.284,0,15,6.716,15,15v5c0,5.514,4.486,10,10,10h10c5.514,0,10-4.486,10-10v-5
	c0-8.284,6.716-15,15-15h160c8.284,0,15,6.716,15,15v5c0,5.514,4.486,10,10,10h10c5.514,0,10-4.486,10-10v-5c0-8.284,6.716-15,15-15
	h40C442.602,430,457.21,416.939,459.644,400z M460,125c0-19.299-15.701-35-35-35h-55v115c0,41.355-33.645,75-75,75H195
	c-41.355,0-75-33.645-75-75V90H65c-19.299,0-35,15.701-35,35v245h430V125z"/>
<g>
</g>
<g>
</g>
<g>
</g>
<g>
</g>
<g>
</g>
<g>
</g>
<g>
</g>
<g>
</g>
<g>
</g>
<g>
</g>
<g>
</g>
<g>
</g>
<g>
</g>
<g>
</g>
<g>
</g>
</svg>
