<?xml version="1.0" encoding="iso-8859-1"?>
<!-- Generator: Adobe Illustrator 19.0.0, SVG Export Plug-In . SVG Version: 6.00 Build 0)  -->
<svg version="1.1" id="Capa_1" xmlns="http://www.w3.org/2000/svg" xmlns:xlink="http://www.w3.org/1999/xlink" x="0px" y="0px"
	 viewBox="0 0 50 50" style="enable-background:new 0 0 50 50;" xml:space="preserve">
<g>
	<g>
		<path d="M44.995,0H5.005C3.348,0,2,1.347,2,3.001v43.998C2,48.653,3.348,50,5.005,50h39.99C46.652,50,48,48.653,48,46.999V3.001
			C48,1.347,46.652,0,44.995,0z M46,46.999C46,47.551,45.549,48,44.995,48H5.005C4.451,48,4,47.551,4,46.999V3.001
			C4,2.449,4.451,2,5.005,2h39.99C45.549,2,46,2.449,46,3.001V46.999z"/>
		<rect x="7" y="3" width="36" height="2"/>
		<rect x="7" y="45" width="36" height="2"/>
		<rect x="33" y="7" width="3" height="2"/>
		<rect x="13" y="7" width="3" height="2"/>
		<path d="M25,37c6.617,0,12-5.383,12-12s-5.383-12-12-12s-12,5.383-12,12S18.383,37,25,37z M25,15c5.514,0,10,4.486,10,10
			s-4.486,10-10,10s-10-4.486-10-10S19.486,15,25,15z"/>
		<polygon points="28,26 32,26 32,24 28,24 26,24 26,26 26,27 28,27 		"/>
	</g>
</g>
<g>
</g>
<g>
</g>
<g>
</g>
<g>
</g>
<g>
</g>
<g>
</g>
<g>
</g>
<g>
</g>
<g>
</g>
<g>
</g>
<g>
</g>
<g>
</g>
<g>
</g>
<g>
</g>
<g>
</g>
</svg>
