<?xml version="1.0" encoding="iso-8859-1"?>
<!-- Generator: Adobe Illustrator 18.1.1, SVG Export Plug-In . SVG Version: 6.00 Build 0)  -->
<svg version="1.1" id="Capa_1" xmlns="http://www.w3.org/2000/svg" xmlns:xlink="http://www.w3.org/1999/xlink" x="0px" y="0px"
	 viewBox="0 0 200.716 200.716" style="enable-background:new 0 0 200.716 200.716;" xml:space="preserve">
<g>
	<path style="fill:#010002;" d="M171.479,41.386c0-13.872-3.099-27.575-8.958-39.647L161.673,0H39.047l-0.852,1.743
		c-5.855,12.079-8.958,25.786-8.958,39.647c0,43.168,30.474,79.601,68.023,81.483v71.652H69.958v6.191h63.55v-6.191h-30.059v-71.656
		C141.009,120.994,171.479,84.554,171.479,41.386z M157.775,6.195c3.371,7.387,5.637,15.371,6.735,23.731
		c-6.492,2.452-26.884,9.659-41.393,9.666c-4.653,0-8.278-0.741-10.78-2.194c-2.308-1.342-3.554-3.264-3.912-6.045
		c-0.551-4.32-2.745-7.691-6.528-10.017c-3.865-2.373-9.53-3.579-16.828-3.579c-16.914,0-38.959,6.424-48.45,9.466
		c1.22-7.426,3.35-14.494,6.324-21.026h114.831V6.195z M102.278,32.142c0.619,4.721,2.953,8.292,6.943,10.608
		c3.403,1.979,8.088,2.985,13.925,2.985c14.301-0.004,32.174-5.787,41.973-9.409c0.115,1.797,0.168,3.457,0.168,5.06
		c0,41.572-29.128,75.385-64.928,75.385S35.429,82.958,35.429,41.386c0-2.358,0.115-4.831,0.333-7.365
		C43.32,31.505,67.671,23.9,85.182,23.9c6.009,0,10.547,0.909,13.478,2.713C100.814,27.94,101.967,29.694,102.278,32.142z"/>
</g>
<g>
</g>
<g>
</g>
<g>
</g>
<g>
</g>
<g>
</g>
<g>
</g>
<g>
</g>
<g>
</g>
<g>
</g>
<g>
</g>
<g>
</g>
<g>
</g>
<g>
</g>
<g>
</g>
<g>
</g>
</svg>
